<svg width="343" height="193" viewBox="0 0 343 193" fill="none" xmlns="http://www.w3.org/2000/svg">
<rect width="342.543" height="193" fill="#30003C"/>
<path d="M106.271 42.5063H212.818V142.834C212.818 147.285 209.201 150.893 204.739 150.893H114.351C109.889 150.893 106.272 147.285 106.272 142.834L106.271 42.5063Z" fill="#F1B5FF"/>
<path d="M106.271 41.8414H212.818V142.169C212.818 146.62 209.201 150.228 204.739 150.228H114.351C109.889 150.228 106.272 146.62 106.272 142.169L106.271 41.8414Z" fill="#F1B5FF"/>
<path d="M221.529 101.021C221.529 125.627 201.428 145.573 176.632 145.573C151.836 145.573 131.735 125.627 131.735 101.021C131.735 76.4163 151.836 56.4699 176.632 56.4699C201.428 56.4699 221.529 76.4163 221.529 101.021Z" fill="#30003C"/>
<path d="M141.787 69.1039C141.787 74.6125 137.287 79.0782 131.735 79.0782C126.184 79.0782 121.684 74.6125 121.684 69.1039C121.684 63.5953 126.184 59.1297 131.735 59.1297C137.287 59.1297 141.787 63.5953 141.787 69.1039Z" fill="#D68BE7"/>
<path fill-rule="evenodd" clip-rule="evenodd" d="M130.713 63.5403C131.277 62.9797 132.193 62.9797 132.758 63.5403L137.343 68.0894C137.908 68.6499 137.908 69.5588 137.343 70.1194L132.758 74.6685C132.193 75.2291 131.277 75.2291 130.713 74.6685L126.128 70.1194C125.563 69.5588 125.563 68.6499 126.128 68.0894L130.713 63.5403Z" fill="#F1B5FF"/>
<path fill-rule="evenodd" clip-rule="evenodd" d="M176.449 49.8209C169.609 49.8209 162.836 51.1577 156.517 53.7551C150.198 56.3524 144.456 60.1594 139.619 64.9587C134.783 69.7579 130.946 75.4555 128.329 81.7261C125.711 87.9966 124.364 94.7173 124.364 101.505C124.364 108.292 125.711 115.012 128.329 121.283C130.946 127.554 134.783 133.251 139.619 138.05C144.456 142.85 150.198 146.657 156.517 149.254C162.836 151.851 169.609 153.188 176.449 153.188C183.288 153.188 190.061 151.851 196.38 149.254C200.319 147.635 204.033 145.547 207.443 143.041L223.157 158.635C226.157 161.611 231.021 161.612 234.021 158.635C237.021 155.658 237.022 150.831 234.021 147.854L218.307 132.26C220.832 128.876 222.937 125.191 224.568 121.283C227.186 115.012 228.533 108.292 228.533 101.505C228.533 94.7173 227.186 87.9966 224.568 81.7261C221.951 75.4555 218.114 69.7579 213.278 64.9587C208.441 60.1594 202.7 56.3524 196.38 53.7551C190.061 51.1577 183.288 49.8209 176.449 49.8209ZM162.396 67.8405C166.851 66.0093 171.626 65.0668 176.449 65.0668C181.271 65.0668 186.046 66.0093 190.501 67.8405C194.956 69.6716 199.004 72.3556 202.414 75.7392C205.823 79.1227 208.528 83.1396 210.374 87.5604C212.219 91.9812 213.169 96.7195 213.169 101.505C213.169 106.29 212.219 111.028 210.374 115.449C208.528 119.869 205.823 123.886 202.414 127.27C199.004 130.653 194.956 133.337 190.501 135.169C186.046 137 181.271 137.942 176.449 137.942C171.626 137.942 166.851 137 162.396 135.169C157.941 133.337 153.893 130.653 150.483 127.27C147.074 123.886 144.369 119.869 142.524 115.449C140.678 111.028 139.728 106.29 139.728 101.505C139.728 96.7195 140.678 91.9812 142.524 87.5604C144.369 83.1396 147.074 79.1227 150.483 75.7392C153.893 72.3556 157.941 69.6716 162.396 67.8405Z" fill="#A953BC"/>
<path fill-rule="evenodd" clip-rule="evenodd" d="M172.376 79.3604C174.542 77.2115 178.053 77.2115 180.218 79.3604L197.792 96.7985C199.957 98.9474 199.957 102.431 197.792 104.58L180.218 122.018C178.053 124.167 174.542 124.167 172.376 122.018L154.803 104.58C152.637 102.431 152.637 98.9474 154.803 96.7985L172.376 79.3604Z" fill="#F1B5FF"/>
<path d="M106.271 35.4791C106.271 33.5576 107.919 32 109.952 32L127.802 32.0872V41.8414H106.271L106.271 35.4791Z" fill="#A953BC"/>
<path fill-rule="evenodd" clip-rule="evenodd" d="M127.802 32.0872L121.913 32.0585V41.8414H127.802V32.0872Z" fill="#F1B5FF"/>
<path d="M127.802 32.0872L209.132 32C211.165 32 212.813 33.5576 212.813 35.479L212.818 41.8414H127.802V32.0872Z" fill="#A953BC"/>
<path d="M206.285 36.6967C206.285 37.9456 205.214 38.9581 203.893 38.9581C202.572 38.9581 201.501 37.9456 201.501 36.6967C201.501 35.4478 202.572 34.4353 203.893 34.4353C205.214 34.4353 206.285 35.4478 206.285 36.6967Z" fill="#30003C"/>
<path d="M197.82 36.6967C197.82 37.9456 196.749 38.9581 195.428 38.9581C194.107 38.9581 193.036 37.9456 193.036 36.6967C193.036 35.4478 194.107 34.4353 195.428 34.4353C196.749 34.4353 197.82 35.4478 197.82 36.6967Z" fill="#30003C"/>
</svg>
