<svg width="248" height="128" viewBox="0 0 248 128" fill="none" xmlns="http://www.w3.org/2000/svg">
<rect x="48.5743" y="55.4257" width="64" height="64" rx="4" transform="rotate(-60 48.5743 55.4257)" fill="#001C35"/>
<path d="M79.1454 35.3839C86.3988 36.6335 93.826 34.6256 99.5039 29.9288C99.9957 29.5132 100.73 29.9373 100.616 30.571C99.3665 37.8244 101.374 45.2517 106.071 50.9295C106.487 51.4213 106.063 52.1558 105.429 52.0418C98.1756 50.7921 90.7483 52.8 85.0705 57.4968C84.5787 57.9124 83.8442 57.4883 83.9582 56.8546C85.1748 49.6101 83.179 42.1618 78.4911 36.5171C78.0755 36.0253 78.4995 35.2908 79.1333 35.4048L79.1454 35.3839Z" fill="#99CFFF"/>
<path d="M136 4C136 1.79086 137.791 0 140 0H196C198.209 0 200 1.79086 200 4V64H136V4Z" fill="#FFB980"/>
<path d="M180.462 18.6743C181.858 19.6324 182.906 20.9509 183.494 22.4873C183.889 23.5191 184.055 24.5842 183.989 25.652C183.919 26.78 183.582 27.8877 182.958 29.0384C182.936 29.0784 182.912 29.1176 182.894 29.1467L182.887 29.1587L182.865 29.1968C182.823 29.2646 182.753 29.3108 182.672 29.322C182.659 29.3234 182.646 29.3244 182.634 29.3244C182.565 29.3244 182.498 29.2978 182.448 29.2492L182.444 29.2458C182.357 29.1636 182.27 29.0814 182.182 28.9996L182.162 28.9804L182.147 28.9663C181.969 28.7991 181.787 28.6282 181.613 28.4513C179.651 26.4485 177.695 24.4454 176.21 22.9244C175.54 22.2387 174.745 21.8236 173.846 21.6901C173.599 21.6537 173.355 21.6352 173.12 21.6352C172.054 21.6352 171.106 22.0163 170.305 22.7684C169.407 23.6118 168.514 24.4754 167.65 25.3112L167.62 25.3401C167.273 25.6754 166.929 26.008 166.584 26.3401C166.287 26.6258 165.994 26.7891 165.663 26.8531C165.57 26.8713 165.473 26.8807 165.375 26.8807C164.936 26.8807 164.508 26.6887 164.2 26.3548C163.895 26.0247 163.747 25.6045 163.782 25.1719C163.814 24.767 163.99 24.4083 164.302 24.1058C164.822 23.6037 165.342 23.1013 165.861 22.5988C166.111 22.3565 166.361 22.1146 166.611 21.8726L167.023 21.4736C167.252 21.2523 167.481 21.0303 167.709 20.8082L167.71 20.8072L167.727 20.7908L167.739 20.7789C168.268 20.2644 168.815 19.7329 169.365 19.2159C170.351 18.29 171.575 17.6743 173.004 17.3858C173.802 17.2246 174.615 17.1428 175.421 17.1428C175.546 17.1428 175.668 17.1446 175.784 17.1484C177.465 17.1988 179.083 17.7264 180.462 18.6743Z" fill="#522E0C"/>
<path d="M178.306 28.0124L178.313 28.0188L178.32 28.0261C179.614 29.3513 180.908 30.6764 182.202 32.0019C182.62 32.4299 182.77 33.0352 182.604 33.6212C182.438 34.2065 181.993 34.6429 181.414 34.7883C181.273 34.8236 181.129 34.8415 180.985 34.8415C180.643 34.8415 180.303 34.745 179.945 34.5471C179.742 34.4345 179.559 34.2957 179.415 34.1457C178.714 33.4156 177.238 31.8673 176.189 30.7662C175.97 30.5362 175.665 30.4222 175.343 30.4537C175.166 30.4708 174.996 30.5348 174.853 30.6386C174.586 30.8313 174.432 31.126 174.424 31.447C174.417 31.7205 174.517 31.9802 174.706 32.1785C175.608 33.1268 177.521 35.1373 178.299 35.9572C178.583 36.2562 178.75 36.6324 178.767 37.016C178.774 37.1506 178.753 37.3467 178.723 37.4775C178.641 37.8443 178.393 38.1342 178.109 38.38C177.76 38.6821 176.773 39.1503 175.985 38.4569C175.621 38.137 172.258 34.6971 172.258 34.6971C172.062 34.4925 171.799 34.3796 171.516 34.3796C171.253 34.3796 171.002 34.4799 170.811 34.6617C170.402 35.0506 170.386 35.6999 170.774 36.109C171.882 37.273 173.765 39.2541 174.373 39.8943C174.803 40.3475 174.94 40.9094 174.758 41.4772C174.57 42.0657 174.125 42.4562 173.506 42.5772C173.437 42.5905 173.363 42.5968 173.276 42.5968C173.235 42.5968 173.193 42.5951 173.155 42.5935L173.134 42.5926L173.091 42.5905C172.905 42.5832 172.757 42.4744 172.681 42.2923C172.159 41.0269 171.242 40.2873 169.877 40.0314C169.783 40.0139 169.687 40.0083 169.576 40.002L169.563 40.0013H169.555C169.521 39.9996 169.489 39.9978 169.457 39.9957L169.446 39.995C169.127 39.9754 169.02 39.8663 169.006 39.5464C168.966 38.6303 168.629 37.8335 168.004 37.1782C167.42 36.5663 166.697 36.2009 165.854 36.0922C165.715 36.0744 165.601 36.0656 165.496 36.0649C165.24 36.0639 165.078 35.9023 165.074 35.6432C165.067 35.1138 164.942 34.6124 164.706 34.1533C164.119 33.0163 163.18 32.3456 161.914 32.1603C161.825 32.1474 161.737 32.1414 161.613 32.1341H161.607C161.267 32.1138 161.158 32.0044 161.143 31.6649C161.104 30.8124 160.802 30.0596 160.245 29.4278C159.641 28.7432 158.886 28.3407 157.999 28.2323C157.82 28.2106 157.644 28.1994 157.475 28.1994C156.496 28.1994 155.628 28.5683 154.895 29.2956C154.71 29.4788 154.532 29.6634 154.344 29.8592L154.314 29.8907C154.222 29.9869 154.128 30.0841 154.032 30.183C153.981 30.2362 153.912 30.2655 153.838 30.2655C153.832 30.2655 153.825 30.2652 153.818 30.2648C153.738 30.2589 153.665 30.218 153.618 30.153C153.594 30.119 153.572 30.0886 153.55 30.0599L153.543 30.0495L153.537 30.0421L153.524 30.0237C153.487 29.9722 153.449 29.9197 153.412 29.8662C152.666 28.7662 152.215 27.6054 152.071 26.4152C151.879 24.8186 152.076 23.3536 152.657 22.0616C153.237 20.7693 154.211 19.627 155.551 18.6672C156.594 17.9203 157.832 17.4374 159.232 17.2318C159.623 17.1741 160.029 17.1462 160.475 17.1462C160.793 17.1462 161.133 17.1605 161.512 17.1902C162.268 17.2497 162.929 17.3577 163.532 17.521C164.455 17.7714 165.299 18.1811 166.041 18.7392L166.113 18.793L166.157 18.8284L166.175 18.8437C166.251 18.9112 166.301 19.0161 166.306 19.1228C166.312 19.2399 166.267 19.3539 166.182 19.435C165.941 19.6665 163.655 21.8676 162.785 22.7214C162.204 23.2913 161.862 23.998 161.768 24.8218C161.634 25.9963 161.973 27.011 162.774 27.8375C163.4 28.483 164.177 28.8452 165.081 28.9141L165.095 28.9153C165.2 28.9243 165.734 28.9702 166.288 28.8176C166.904 28.6477 167.551 28.247 167.917 27.8973C168.952 26.9108 170.013 25.8846 170.954 24.974L171.634 24.3169C172.067 23.8976 172.571 23.6812 173.13 23.6735H173.164C173.762 23.6735 174.286 23.899 174.721 24.3438C175.34 24.9758 175.958 25.6085 176.576 26.2411L178.306 28.0124Z" fill="#522E0C"/>
<path d="M165.516 38.1043C166.093 38.1351 166.573 38.4865 166.832 39.0687C167.097 39.6662 166.995 40.2816 166.551 40.7582C166.07 41.2739 165.564 41.7642 165.133 42.1757C164.836 42.4589 164.477 42.6086 164.093 42.6086C163.916 42.6086 163.733 42.5771 163.548 42.5145C162.98 42.3211 162.603 41.8879 162.486 41.2942C162.388 40.7911 162.525 40.3145 162.872 39.9529C163.349 39.4554 163.841 38.9701 164.302 38.5201C164.593 38.2361 164.972 38.104 165.493 38.1043H165.516Z" fill="#522E0C"/>
<path d="M169.329 42.033L169.296 42.0323C168.888 42.0323 168.524 42.1764 168.243 42.4495C167.707 42.968 167.238 43.4365 166.811 43.882C166.464 44.2439 166.326 44.7198 166.423 45.2222C166.538 45.8159 166.914 46.2502 167.483 46.4443C167.667 46.5076 167.852 46.5397 168.031 46.5397C168.223 46.5397 168.409 46.503 168.584 46.4306C168.757 46.3586 168.92 46.2506 169.068 46.1089C169.465 45.731 169.985 45.2285 170.486 44.6915C170.932 44.2156 171.035 43.5998 170.77 43.0023C170.507 42.4082 169.995 42.0641 169.329 42.033Z" fill="#522E0C"/>
<path d="M162.898 35.1338C163.164 35.7307 163.065 36.3457 162.625 36.8209L162.621 36.8244C162.175 37.3027 161.69 37.7859 161.18 38.2611C160.885 38.5366 160.532 38.6825 160.16 38.6825C159.94 38.6825 159.713 38.6318 159.488 38.5321C158.886 38.265 158.545 37.752 158.527 37.0884C158.517 36.6772 158.662 36.3052 158.947 36.0128C159.447 35.4992 159.912 35.0345 160.368 34.5915C160.652 34.316 161.019 34.1702 161.428 34.1702L161.454 34.1709C162.118 34.1974 162.632 34.5394 162.898 35.1338Z" fill="#522E0C"/>
<path d="M159.106 31.8284C159.088 31.1581 158.744 30.6424 158.138 30.3756C157.915 30.2781 157.692 30.2288 157.475 30.2288C157.093 30.2288 156.743 30.3749 156.436 30.6637C155.938 31.1309 155.461 31.6085 155.018 32.0833C154.572 32.5589 154.469 33.1746 154.733 33.7722C154.986 34.3459 155.471 34.7061 156.032 34.7358L156.052 34.7365C156.602 34.7358 156.964 34.612 157.262 34.3229C157.74 33.8582 158.219 33.3809 158.685 32.904C158.971 32.6106 159.117 32.2389 159.106 31.8284Z" fill="#522E0C"/>
<path d="M0 68C0 65.7909 1.79086 64 4 64H60C62.2091 64 64 65.7909 64 68V128H0V68Z" fill="#E0A3F1"/>
<path fill-rule="evenodd" clip-rule="evenodd" d="M39.034 82.7581C36.445 83.2196 34.25 84.6492 32.6515 86.7429C32.5277 86.9118 32.2688 86.9118 32.1337 86.7429C30.6141 84.7505 28.2952 83.3209 25.7512 82.8031C25.5373 82.7581 25.436 82.5329 25.5261 82.3416C26.224 81.0133 27.5748 80.0227 29.3308 80.0002C30.5353 79.9889 31.6159 80.473 32.4039 81.2497C33.1918 80.473 34.2837 80.0002 35.4882 80.0002C37.233 80.0227 38.5725 80.9908 39.2592 82.2965C39.3605 82.4879 39.2479 82.7243 39.034 82.7581Z" fill="#30003C"/>
<path fill-rule="evenodd" clip-rule="evenodd" d="M31.4921 103.031C31.4921 103.031 31.3683 109.144 25.2559 109.042C19.2899 108.952 18.6145 103.504 18.4457 100.634V85.4034C18.4457 85.2233 18.592 85.0995 18.7609 85.0995H24.1753C31.706 85.1558 31.4921 93.6996 31.4921 93.6996V103.031Z" fill="#30003C"/>
<path fill-rule="evenodd" clip-rule="evenodd" d="M27.8675 111.316C27.5523 111.215 27.5748 110.765 27.9013 110.697C30.1639 110.157 31.5034 108.795 31.5034 108.795C33.1018 107.32 33.9911 105.283 33.9911 103.043V91.2681C33.9911 88.2401 36.1749 85.606 39.1692 85.1783C39.8783 85.0995 40.6888 85.122 40.6888 85.122H45.2365C45.4166 85.122 45.5517 85.2571 45.5517 85.4372V85.4147C45.5404 85.4147 45.5404 98.5399 45.5404 98.5399C45.5404 102.255 44.032 105.62 41.6006 108.052C39.1692 110.483 35.8034 111.992 32.0887 111.992C32.0887 111.992 29.7361 112.127 27.8675 111.316Z" fill="#30003C"/>
<path d="M120 68C120 65.7909 121.791 64 124 64H184V128H120V68Z" fill="#FFB8BA"/>
<path fill-rule="evenodd" clip-rule="evenodd" d="M136.006 79.5966H167.993C168.22 79.5966 168.403 79.7795 168.403 80.006V96.0227C168.403 98.2321 167.968 100.377 167.112 102.399C166.285 104.353 165.103 106.102 163.599 107.605C162.092 109.108 160.34 110.288 158.387 111.113C156.36 111.971 154.212 112.403 152 112.403C149.788 112.403 147.637 111.969 145.613 111.113C143.66 110.288 141.906 109.108 140.401 107.605C138.896 106.102 137.715 104.35 136.888 102.399C136.032 100.377 135.597 98.2298 135.597 96.0227V80.006C135.597 79.7795 135.782 79.5966 136.006 79.5966ZM152.002 82.4714C151.569 82.0528 150.972 81.7921 150.308 81.799V81.8012C148.201 81.8218 147.163 84.3171 148.65 85.7786L151.789 88.864C151.794 88.8674 151.797 88.8708 151.801 88.8743C151.804 88.8777 151.808 88.8811 151.812 88.8845C151.869 88.9349 151.938 88.9554 152.004 88.9554C152.073 88.9554 152.14 88.9326 152.197 88.8845L152.22 88.8617L155.359 85.7763C156.846 84.3148 155.806 81.8218 153.701 81.799C153.035 81.7921 152.437 82.0505 152.002 82.4714ZM140.916 96.0227C140.916 102.024 145.876 106.889 151.998 106.889H151.995C158.117 106.889 163.077 102.024 163.077 96.0227V89.2688C163.077 89.0469 162.894 88.8662 162.667 88.8662H158.54C155.304 88.8662 152.618 91.1671 152.089 94.1907C152.082 94.2387 152.039 94.2731 151.988 94.2685C151.945 94.2662 151.911 94.2319 151.901 94.1907C151.37 91.1671 148.684 88.8662 145.45 88.8662H141.324C141.099 88.8662 140.916 89.0469 140.916 89.2688V96.0227Z" fill="#530E19"/>
<rect width="64" height="64" transform="translate(184 64)" fill="#B2F5A7"/>
<path d="M231.361 109.239L229.224 111.365C228.377 112.212 227.005 112.212 226.15 111.365L216.166 101.379L211.91 107.669C211.573 108.291 210.982 108.736 210.29 108.902C208.968 109.188 207.665 108.361 207.368 107.05L200.05 81.5925C199.78 80.6531 200.649 79.7793 201.592 80.05L227.078 87.38C227.77 87.5308 228.362 87.9792 228.698 88.6017C229.34 89.7924 228.891 91.2692 227.712 91.911L221.369 96.1675L231.365 106.165C232.212 107.012 232.212 108.384 231.365 109.239H231.361Z" fill="#1F4F17"/>
</svg>
