<svg xmlns="http://www.w3.org/2000/svg">
  <defs>
    <symbol id="logo-visual" viewBox="0 0 40 40">
      <path
        fill-rule="evenodd"
        clip-rule="evenodd"
        fill="currentColor"
        d="M0.652117 0.156738H39.2702C39.5439 0.156738 39.7651 0.377643 39.7651 0.65101V19.9882C39.7651 22.6556 39.2398 25.2457 38.2057 27.6867C37.2077 30.0448 35.7811 32.1572 33.9646 33.9714C32.1454 35.7856 30.0304 37.2104 27.672 38.2072C25.2252 39.2427 22.6319 39.7646 19.9611 39.7646C17.2904 39.7646 14.6943 39.24 12.2502 38.2072C9.89192 37.2104 7.77412 35.7856 5.95768 33.9714C4.14124 32.1572 2.71462 30.0421 1.71655 27.6867C0.682532 25.2457 0.157227 22.6528 0.157227 19.9882V0.65101C0.157227 0.377643 0.381171 0.156738 0.652117 0.156738ZM19.9639 3.62753C19.4414 3.12221 18.7198 2.80743 17.918 2.81571V2.81847C15.3744 2.84332 14.122 5.8559 15.9163 7.62036L19.7068 11.3453C19.7123 11.3495 19.7165 11.3536 19.7206 11.3578C19.7248 11.3619 19.7289 11.3661 19.7344 11.3702C19.8036 11.4309 19.8865 11.4558 19.9667 11.4558C20.0496 11.4558 20.1298 11.4282 20.1989 11.3702L20.2266 11.3426L24.017 7.6176C25.8114 5.85313 24.5562 2.84332 22.0154 2.81571C21.2108 2.80743 20.4892 3.11946 19.9639 3.62753ZM6.57975 19.9882C6.57975 27.2338 12.5682 33.1071 19.9584 33.1071H19.9556C27.3458 33.1071 33.3343 27.2338 33.3343 19.9882V11.8341C33.3343 11.5663 33.1131 11.3481 32.8394 11.3481H27.8573C23.9507 11.3481 20.7076 14.126 20.069 17.7764C20.0607 17.8344 20.0081 17.8758 19.9473 17.8703C19.8948 17.8675 19.8533 17.8261 19.8423 17.7764C19.2008 14.126 15.9578 11.3481 12.054 11.3481H7.07187C6.80093 11.3481 6.57975 11.5663 6.57975 11.8341V19.9882Z"
      />
    </symbol>
    <symbol id="logo-text" viewBox="0 0 263 48">
      <path
        id="logo-text"
        fill="currentColor"
        d="M8.688 15.508C9.808 15.508 10.8 15.684 11.664 16.036C12.544 16.372 13.36 16.86 14.112 17.5L12.264 19.42C11.672 18.972 11.112 18.644 10.584 18.436C10.072 18.228 9.488 18.124 8.832 18.124C7.568 18.124 6.544 18.628 5.76 19.636C4.992 20.628 4.608 22.148 4.608 24.196C4.608 26.356 4.904 27.908 5.496 28.852C6.104 29.78 7.04 30.244 8.304 30.244C9.216 30.244 10.04 30.044 10.776 29.644V25.588H8.448L8.088 23.02H14.208V31.204C13.344 31.732 12.408 32.148 11.4 32.452C10.408 32.74 9.4 32.884 8.376 32.884C5.928 32.884 4.072 32.148 2.808 30.676C1.544 29.204 0.912 27.036 0.912 24.172C0.912 22.364 1.256 20.804 1.944 19.492C2.632 18.18 3.56 17.188 4.728 16.516C5.912 15.844 7.232 15.508 8.688 15.508ZM27.807 25.852C27.807 26.012 27.783 26.452 27.735 27.172H19.791C19.903 28.324 20.215 29.14 20.727 29.62C21.239 30.1 21.935 30.34 22.815 30.34C23.359 30.34 23.871 30.252 24.351 30.076C24.831 29.9 25.351 29.62 25.911 29.236L27.327 31.156C25.903 32.308 24.295 32.884 22.503 32.884C20.503 32.884 18.967 32.284 17.895 31.084C16.823 29.884 16.287 28.26 16.287 26.212C16.287 24.916 16.511 23.756 16.959 22.732C17.423 21.692 18.087 20.876 18.951 20.284C19.831 19.692 20.871 19.396 22.071 19.396C23.879 19.396 25.287 19.964 26.295 21.1C27.303 22.236 27.807 23.82 27.807 25.852ZM24.423 24.892C24.423 22.78 23.663 21.724 22.143 21.724C21.439 21.724 20.887 21.988 20.487 22.516C20.103 23.028 19.871 23.868 19.791 25.036H24.423V24.892ZM37.1618 19.396C38.6498 19.396 39.8018 19.988 40.6178 21.172C41.4498 22.356 41.8658 24.012 41.8658 26.14C41.8658 27.452 41.6578 28.62 41.2418 29.644C40.8418 30.652 40.2578 31.444 39.4898 32.02C38.7378 32.596 37.8498 32.884 36.8258 32.884C35.4338 32.884 34.3218 32.34 33.4898 31.252L33.2978 32.5H30.2738V14.716L33.6818 14.332V21.148C34.0818 20.604 34.5858 20.18 35.1938 19.876C35.8018 19.556 36.4578 19.396 37.1618 19.396ZM35.8658 30.364C37.4978 30.364 38.3138 28.956 38.3138 26.14C38.3138 24.588 38.1138 23.5 37.7138 22.876C37.3298 22.236 36.7698 21.916 36.0338 21.916C35.1218 21.916 34.3378 22.46 33.6818 23.548V28.996C34.2418 29.908 34.9698 30.364 35.8658 30.364ZM51.1466 19.42C51.5306 19.42 51.9546 19.484 52.4186 19.612L51.8426 22.9C51.3946 22.788 51.0186 22.732 50.7146 22.732C49.9626 22.732 49.3786 22.996 48.9626 23.524C48.5466 24.052 48.2186 24.852 47.9786 25.924V32.5H44.5706V19.78H47.5226L47.8346 22.252C48.1386 21.356 48.5786 20.66 49.1546 20.164C49.7466 19.668 50.4106 19.42 51.1466 19.42ZM64.5257 32.5H61.5737L61.4057 30.796C60.9577 31.5 60.4137 32.028 59.7737 32.38C59.1337 32.716 58.3897 32.884 57.5417 32.884C56.3897 32.884 55.5097 32.54 54.9017 31.852C54.2937 31.148 53.9897 30.172 53.9897 28.924V19.78H57.3977V28.492C57.3977 29.164 57.5097 29.644 57.7337 29.932C57.9577 30.204 58.3097 30.34 58.7897 30.34C59.7017 30.34 60.4777 29.788 61.1177 28.684V19.78H64.5257V32.5ZM71.2989 19.78V32.5H67.8909V19.78H71.2989ZM69.5709 13.228C70.1789 13.228 70.6749 13.42 71.0589 13.804C71.4589 14.172 71.6589 14.644 71.6589 15.22C71.6589 15.796 71.4589 16.276 71.0589 16.66C70.6749 17.028 70.1789 17.212 69.5709 17.212C68.9629 17.212 68.4669 17.028 68.0829 16.66C67.6989 16.276 67.5069 15.796 67.5069 15.22C67.5069 14.644 67.6989 14.172 68.0829 13.804C68.4669 13.42 68.9629 13.228 69.5709 13.228ZM78.0724 14.332V32.5H74.6644V14.716L78.0724 14.332ZM85.8004 19.78L81.7444 25.372L86.1604 32.5H82.2964L78.1924 25.54L82.2724 19.78H85.8004ZM98.1429 25.852C98.1429 26.012 98.1189 26.452 98.0709 27.172H90.1269C90.2389 28.324 90.5509 29.14 91.0629 29.62C91.5749 30.1 92.2709 30.34 93.1509 30.34C93.6949 30.34 94.2069 30.252 94.6869 30.076C95.1669 29.9 95.6869 29.62 96.2469 29.236L97.6629 31.156C96.2389 32.308 94.6309 32.884 92.8389 32.884C90.8389 32.884 89.3029 32.284 88.2309 31.084C87.1589 29.884 86.6229 28.26 86.6229 26.212C86.6229 24.916 86.8469 23.756 87.2949 22.732C87.7589 21.692 88.4229 20.876 89.2869 20.284C90.1669 19.692 91.2069 19.396 92.4069 19.396C94.2149 19.396 95.6229 19.964 96.6309 21.1C97.6389 22.236 98.1429 23.82 98.1429 25.852ZM94.7589 24.892C94.7589 22.78 93.9989 21.724 92.4789 21.724C91.7749 21.724 91.2229 21.988 90.8229 22.516C90.4389 23.028 90.2069 23.868 90.1269 25.036H94.7589V24.892ZM107.186 19.42C107.57 19.42 107.994 19.484 108.458 19.612L107.882 22.9C107.434 22.788 107.058 22.732 106.754 22.732C106.002 22.732 105.418 22.996 105.002 23.524C104.586 24.052 104.258 24.852 104.018 25.924V32.5H100.61V19.78H103.562L103.874 22.252C104.178 21.356 104.618 20.66 105.194 20.164C105.786 19.668 106.45 19.42 107.186 19.42ZM114.068 19.396C115.86 19.396 117.396 19.908 118.676 20.932L117.38 22.876C116.308 22.204 115.252 21.868 114.212 21.868C113.652 21.868 113.22 21.972 112.916 22.18C112.612 22.388 112.46 22.668 112.46 23.02C112.46 23.276 112.524 23.492 112.652 23.668C112.796 23.844 113.052 24.012 113.42 24.172C113.804 24.332 114.372 24.524 115.124 24.748C116.468 25.116 117.468 25.612 118.124 26.236C118.78 26.844 119.108 27.684 119.108 28.756C119.108 29.604 118.86 30.34 118.364 30.964C117.884 31.588 117.228 32.068 116.396 32.404C115.564 32.724 114.636 32.884 113.612 32.884C112.54 32.884 111.564 32.724 110.684 32.404C109.804 32.068 109.052 31.612 108.428 31.036L110.108 29.164C111.18 29.996 112.316 30.412 113.516 30.412C114.156 30.412 114.66 30.292 115.028 30.052C115.412 29.796 115.604 29.452 115.604 29.02C115.604 28.684 115.532 28.42 115.388 28.228C115.244 28.036 114.98 27.86 114.596 27.7C114.212 27.524 113.612 27.324 112.796 27.1C111.516 26.748 110.564 26.252 109.94 25.612C109.332 24.956 109.028 24.148 109.028 23.188C109.028 22.468 109.236 21.82 109.652 21.244C110.068 20.668 110.652 20.22 111.404 19.9C112.172 19.564 113.06 19.396 114.068 19.396ZM126.68 19.396C128.584 19.396 130.072 19.996 131.144 21.196C132.216 22.38 132.752 24.028 132.752 26.14C132.752 27.484 132.504 28.668 132.008 29.692C131.528 30.7 130.824 31.484 129.896 32.044C128.984 32.604 127.904 32.884 126.656 32.884C124.752 32.884 123.256 32.292 122.168 31.108C121.096 29.908 120.56 28.252 120.56 26.14C120.56 24.796 120.8 23.62 121.28 22.612C121.776 21.588 122.48 20.796 123.392 20.236C124.32 19.676 125.416 19.396 126.68 19.396ZM126.68 21.94C125.816 21.94 125.168 22.284 124.736 22.972C124.32 23.644 124.112 24.7 124.112 26.14C124.112 27.58 124.32 28.644 124.736 29.332C125.168 30.004 125.808 30.34 126.656 30.34C127.504 30.34 128.136 30.004 128.552 29.332C128.984 28.644 129.2 27.58 129.2 26.14C129.2 24.7 128.992 23.644 128.576 22.972C128.16 22.284 127.528 21.94 126.68 21.94ZM142.448 19.396C143.568 19.396 144.44 19.74 145.064 20.428C145.688 21.1 146 22.036 146 23.236V32.5H142.592V23.812C142.592 23.124 142.472 22.644 142.232 22.372C142.008 22.084 141.664 21.94 141.2 21.94C140.72 21.94 140.28 22.092 139.88 22.396C139.496 22.684 139.12 23.124 138.752 23.716V32.5H135.344V19.78H138.296L138.56 21.388C139.088 20.732 139.664 20.236 140.288 19.9C140.928 19.564 141.648 19.396 142.448 19.396ZM160.259 14.716V32.5H157.259L157.067 30.94C156.171 32.236 154.955 32.884 153.419 32.884C151.851 32.884 150.651 32.284 149.819 31.084C149.003 29.868 148.595 28.22 148.595 26.14C148.595 24.828 148.803 23.668 149.219 22.66C149.651 21.636 150.259 20.836 151.043 20.26C151.827 19.684 152.731 19.396 153.755 19.396C154.939 19.396 155.971 19.82 156.851 20.668V14.332L160.259 14.716ZM154.427 30.34C154.923 30.34 155.363 30.22 155.747 29.98C156.131 29.724 156.499 29.332 156.851 28.804V23.116C156.515 22.716 156.171 22.42 155.819 22.228C155.483 22.02 155.091 21.916 154.643 21.916C153.859 21.916 153.243 22.26 152.795 22.948C152.363 23.636 152.147 24.7 152.147 26.14C152.147 27.66 152.339 28.74 152.723 29.38C153.123 30.02 153.691 30.34 154.427 30.34ZM174.362 25.852C174.362 26.012 174.338 26.452 174.29 27.172H166.346C166.458 28.324 166.77 29.14 167.282 29.62C167.794 30.1 168.49 30.34 169.37 30.34C169.914 30.34 170.426 30.252 170.906 30.076C171.386 29.9 171.906 29.62 172.466 29.236L173.882 31.156C172.458 32.308 170.85 32.884 169.058 32.884C167.058 32.884 165.522 32.284 164.45 31.084C163.378 29.884 162.842 28.26 162.842 26.212C162.842 24.916 163.066 23.756 163.514 22.732C163.978 21.692 164.642 20.876 165.506 20.284C166.386 19.692 167.426 19.396 168.626 19.396C170.434 19.396 171.842 19.964 172.85 21.1C173.858 22.236 174.362 23.82 174.362 25.852ZM170.978 24.892C170.978 22.78 170.218 21.724 168.698 21.724C167.994 21.724 167.442 21.988 167.042 22.516C166.658 23.028 166.426 23.868 166.346 25.036H170.978V24.892ZM183.404 19.42C183.788 19.42 184.212 19.484 184.676 19.612L184.1 22.9C183.652 22.788 183.276 22.732 182.972 22.732C182.22 22.732 181.636 22.996 181.22 23.524C180.804 24.052 180.476 24.852 180.236 25.924V32.5H176.828V19.78H179.78L180.092 22.252C180.396 21.356 180.836 20.66 181.412 20.164C182.004 19.668 182.668 19.42 183.404 19.42ZM194.725 19.78V22.204L188.749 29.86H194.845L194.509 32.5H184.837V30.052L190.813 22.396H185.341V19.78H194.725ZM202.196 19.396C204.1 19.396 205.588 19.996 206.66 21.196C207.732 22.38 208.268 24.028 208.268 26.14C208.268 27.484 208.02 28.668 207.524 29.692C207.044 30.7 206.34 31.484 205.412 32.044C204.5 32.604 203.42 32.884 202.172 32.884C200.268 32.884 198.772 32.292 197.684 31.108C196.612 29.908 196.076 28.252 196.076 26.14C196.076 24.796 196.316 23.62 196.796 22.612C197.292 21.588 197.996 20.796 198.908 20.236C199.836 19.676 200.932 19.396 202.196 19.396ZM202.196 21.94C201.332 21.94 200.684 22.284 200.252 22.972C199.836 23.644 199.628 24.7 199.628 26.14C199.628 27.58 199.836 28.644 200.252 29.332C200.684 30.004 201.324 30.34 202.172 30.34C203.02 30.34 203.652 30.004 204.068 29.332C204.5 28.644 204.716 27.58 204.716 26.14C204.716 24.7 204.508 23.644 204.092 22.972C203.676 22.284 203.044 21.94 202.196 21.94ZM221.612 25.852C221.612 26.012 221.588 26.452 221.54 27.172H213.596C213.708 28.324 214.02 29.14 214.532 29.62C215.044 30.1 215.74 30.34 216.62 30.34C217.164 30.34 217.676 30.252 218.156 30.076C218.636 29.9 219.156 29.62 219.716 29.236L221.132 31.156C219.708 32.308 218.1 32.884 216.308 32.884C214.308 32.884 212.772 32.284 211.7 31.084C210.628 29.884 210.092 28.26 210.092 26.212C210.092 24.916 210.316 23.756 210.764 22.732C211.228 21.692 211.892 20.876 212.756 20.284C213.636 19.692 214.676 19.396 215.876 19.396C217.684 19.396 219.092 19.964 220.1 21.1C221.108 22.236 221.612 23.82 221.612 25.852ZM218.228 24.892C218.228 22.78 217.468 21.724 215.948 21.724C215.244 21.724 214.692 21.988 214.292 22.516C213.908 23.028 213.676 23.868 213.596 25.036H218.228V24.892ZM227.486 14.332V32.5H224.078V14.716L227.486 14.332ZM235.214 19.78L231.158 25.372L235.574 32.5H231.71L227.606 25.54L231.686 19.78H235.214ZM247.557 25.852C247.557 26.012 247.533 26.452 247.485 27.172H239.541C239.653 28.324 239.965 29.14 240.477 29.62C240.989 30.1 241.685 30.34 242.565 30.34C243.109 30.34 243.621 30.252 244.101 30.076C244.581 29.9 245.101 29.62 245.661 29.236L247.077 31.156C245.653 32.308 244.045 32.884 242.253 32.884C240.253 32.884 238.717 32.284 237.645 31.084C236.573 29.884 236.037 28.26 236.037 26.212C236.037 24.916 236.261 23.756 236.709 22.732C237.173 21.692 237.837 20.876 238.701 20.284C239.581 19.692 240.621 19.396 241.821 19.396C243.629 19.396 245.037 19.964 246.045 21.1C247.053 22.236 247.557 23.82 247.557 25.852ZM244.173 24.892C244.173 22.78 243.413 21.724 241.893 21.724C241.189 21.724 240.637 21.988 240.237 22.516C239.853 23.028 239.621 23.868 239.541 25.036H244.173V24.892ZM257.128 19.396C258.248 19.396 259.12 19.74 259.744 20.428C260.368 21.1 260.68 22.036 260.68 23.236V32.5H257.272V23.812C257.272 23.124 257.152 22.644 256.912 22.372C256.688 22.084 256.344 21.94 255.88 21.94C255.4 21.94 254.96 22.092 254.56 22.396C254.176 22.684 253.8 23.124 253.432 23.716V32.5H250.024V19.78H252.976L253.24 21.388C253.768 20.732 254.344 20.236 254.968 19.9C255.608 19.564 256.328 19.396 257.128 19.396Z"
      />
    </symbol>
  </defs>
</svg>
